<svg width="134" height="24" viewBox="0 0 134 24" fill="none" xmlns="http://www.w3.org/2000/svg">
<g filter="url(#filter0_d_2_9)">
<path d="M4.79297 16.8093H6.02436L7.42892 12.2896H13.3358L14.8365 16.8093H18.2806L13.0856 1.1907H9.64159L4.79297 16.8093ZM7.75601 11.2408L10.2765 3.09773L12.9894 11.2408H7.75601Z" fill="black"/>
<path d="M4.79297 16.8093H6.02436L7.42892 12.2896H13.3358L14.8365 16.8093H18.2806L13.0856 1.1907H9.64159L4.79297 16.8093ZM7.75601 11.2408L10.2765 3.09773L12.9894 11.2408H7.75601Z" fill="url(#paint0_linear_2_9)"/>
<path d="M30.6021 14.3302C30.6021 14.3302 29.5246 15.9511 26.3499 15.9511C24.1565 15.9511 22.1939 14.5209 22.1939 8.91418C22.1939 3.30751 24.1757 2.04887 26.3499 2.04887C29.3514 2.04887 30.3712 3.7652 30.3712 3.7652L31.3332 2.69726C31.3332 2.69726 29.6785 1 26.3499 1C23.5985 1 18.6344 2.69726 18.6344 8.91418C18.6344 15.1311 23.5793 17 26.3499 17C29.717 17 31.6603 15.5125 31.6603 15.5125L30.6021 14.3302Z" fill="black"/>
<path d="M30.6021 14.3302C30.6021 14.3302 29.5246 15.9511 26.3499 15.9511C24.1565 15.9511 22.1939 14.5209 22.1939 8.91418C22.1939 3.30751 24.1757 2.04887 26.3499 2.04887C29.3514 2.04887 30.3712 3.7652 30.3712 3.7652L31.3332 2.69726C31.3332 2.69726 29.6785 1 26.3499 1C23.5985 1 18.6344 2.69726 18.6344 8.91418C18.6344 15.1311 23.5793 17 26.3499 17C29.717 17 31.6603 15.5125 31.6603 15.5125L30.6021 14.3302Z" fill="url(#paint1_linear_2_9)"/>
<path d="M32.4128 16.8093H33.6442L35.0487 12.2896H40.9556L42.4563 16.8093H45.9004L40.7054 1.1907H37.2614L32.4128 16.8093ZM35.3758 11.2408L37.8963 3.09773L40.6092 11.2408H35.3758Z" fill="black"/>
<path d="M32.4128 16.8093H33.6442L35.0487 12.2896H40.9556L42.4563 16.8093H45.9004L40.7054 1.1907H37.2614L32.4128 16.8093ZM35.3758 11.2408L37.8963 3.09773L40.6092 11.2408H35.3758Z" fill="url(#paint2_linear_2_9)"/>
<path d="M47.6086 1.1907V16.8093H54.0927C56.8441 16.8093 61.7889 15.1311 61.7889 8.91418C61.7889 2.69726 56.8441 1.1907 54.0927 1.1907H47.6086ZM50.8795 15.7604V2.23957H54.0927C56.2668 2.23957 58.3256 3.28844 58.3256 8.89511C58.3256 14.5018 56.2668 15.7604 54.0927 15.7604H50.8795Z" fill="black"/>
<path d="M47.6086 1.1907V16.8093H54.0927C56.8441 16.8093 61.7889 15.1311 61.7889 8.91418C61.7889 2.69726 56.8441 1.1907 54.0927 1.1907H47.6086ZM50.8795 15.7604V2.23957H54.0927C56.2668 2.23957 58.3256 3.28844 58.3256 8.89511C58.3256 14.5018 56.2668 15.7604 54.0927 15.7604H50.8795Z" fill="url(#paint3_linear_2_9)"/>
<path d="M64.5069 16.8093H74.8198V15.6651H67.7778V9.27652H73.55V8.17044H67.7778V2.33492H74.6659V1.1907H64.5069V16.8093Z" fill="black"/>
<path d="M64.5069 16.8093H74.8198V15.6651H67.7778V9.27652H73.55V8.17044H67.7778V2.33492H74.6659V1.1907H64.5069V16.8093Z" fill="url(#paint4_linear_2_9)"/>
<path d="M77.0081 16.8093H78.278L79.0284 4.45173L83.1074 16.8093H86.5515L90.3226 4.50894L91.1307 16.8093H94.4016L93.3819 1.1907H90.111L85.9165 14.8832L81.395 1.1907H77.9509L77.0081 16.8093Z" fill="black"/>
<path d="M77.0081 16.8093H78.278L79.0284 4.45173L83.1074 16.8093H86.5515L90.3226 4.50894L91.1307 16.8093H94.4016L93.3819 1.1907H90.111L85.9165 14.8832L81.395 1.1907H77.9509L77.0081 16.8093Z" fill="url(#paint5_linear_2_9)"/>
<path d="M96.975 16.8093H100.15V1.1907H96.975V16.8093Z" fill="black"/>
<path d="M96.975 16.8093H100.15V1.1907H96.975V16.8093Z" fill="url(#paint6_linear_2_9)"/>
<path d="M114.702 14.3302C114.702 14.3302 113.624 15.9511 110.449 15.9511C108.256 15.9511 106.293 14.5209 106.293 8.91418C106.293 3.30751 108.275 2.04887 110.449 2.04887C113.451 2.04887 114.471 3.7652 114.471 3.7652L115.433 2.69726C115.433 2.69726 113.778 1 110.449 1C107.698 1 102.734 2.69726 102.734 8.91418C102.734 15.1311 107.679 17 110.449 17C113.817 17 115.76 15.5125 115.76 15.5125L114.702 14.3302Z" fill="black"/>
<path d="M114.702 14.3302C114.702 14.3302 113.624 15.9511 110.449 15.9511C108.256 15.9511 106.293 14.5209 106.293 8.91418C106.293 3.30751 108.275 2.04887 110.449 2.04887C113.451 2.04887 114.471 3.7652 114.471 3.7652L115.433 2.69726C115.433 2.69726 113.778 1 110.449 1C107.698 1 102.734 2.69726 102.734 8.91418C102.734 15.1311 107.679 17 110.449 17C113.817 17 115.76 15.5125 115.76 15.5125L114.702 14.3302Z" fill="url(#paint7_linear_2_9)"/>
<path d="M116.512 16.8093H117.744L119.148 12.2896H125.055L126.556 16.8093H130L124.805 1.1907H121.361L116.512 16.8093ZM119.475 11.2408L121.996 3.09773L124.709 11.2408H119.475Z" fill="black"/>
<path d="M116.512 16.8093H117.744L119.148 12.2896H125.055L126.556 16.8093H130L124.805 1.1907H121.361L116.512 16.8093ZM119.475 11.2408L121.996 3.09773L124.709 11.2408H119.475Z" fill="url(#paint8_linear_2_9)"/>
</g>
<defs>
<filter id="filter0_d_2_9" x="0.792969" y="0" width="133.207" height="24" filterUnits="userSpaceOnUse" color-interpolation-filters="sRGB">
<feFlood flood-opacity="0" result="BackgroundImageFix"/>
<feColorMatrix in="SourceAlpha" type="matrix" values="0 0 0 0 0 0 0 0 0 0 0 0 0 0 0 0 0 0 127 0" result="hardAlpha"/>
<feOffset dy="3"/>
<feGaussianBlur stdDeviation="2"/>
<feComposite in2="hardAlpha" operator="out"/>
<feColorMatrix type="matrix" values="0 0 0 0 0 0 0 0 0 0 0 0 0 0 0 0 0 0 0.23 0"/>
<feBlend mode="normal" in2="BackgroundImageFix" result="effect1_dropShadow_2_9"/>
<feBlend mode="normal" in="SourceGraphic" in2="effect1_dropShadow_2_9" result="shape"/>
</filter>
<linearGradient id="paint0_linear_2_9" x1="0.56572" y1="6.74185" x2="5.42974" y2="-13.831" gradientUnits="userSpaceOnUse">
<stop stop-color="#5042AF"/>
<stop offset="1" stop-color="#6742D1"/>
</linearGradient>
<linearGradient id="paint1_linear_2_9" x1="0.56572" y1="6.74185" x2="5.42974" y2="-13.831" gradientUnits="userSpaceOnUse">
<stop stop-color="#5042AF"/>
<stop offset="1" stop-color="#6742D1"/>
</linearGradient>
<linearGradient id="paint2_linear_2_9" x1="0.56572" y1="6.74185" x2="5.42974" y2="-13.831" gradientUnits="userSpaceOnUse">
<stop stop-color="#5042AF"/>
<stop offset="1" stop-color="#6742D1"/>
</linearGradient>
<linearGradient id="paint3_linear_2_9" x1="0.56572" y1="6.74185" x2="5.42974" y2="-13.831" gradientUnits="userSpaceOnUse">
<stop stop-color="#5042AF"/>
<stop offset="1" stop-color="#6742D1"/>
</linearGradient>
<linearGradient id="paint4_linear_2_9" x1="0.56572" y1="6.74185" x2="5.42974" y2="-13.831" gradientUnits="userSpaceOnUse">
<stop stop-color="#5042AF"/>
<stop offset="1" stop-color="#6742D1"/>
</linearGradient>
<linearGradient id="paint5_linear_2_9" x1="0.56572" y1="6.74185" x2="5.42974" y2="-13.831" gradientUnits="userSpaceOnUse">
<stop stop-color="#5042AF"/>
<stop offset="1" stop-color="#6742D1"/>
</linearGradient>
<linearGradient id="paint6_linear_2_9" x1="0.56572" y1="6.74185" x2="5.42974" y2="-13.831" gradientUnits="userSpaceOnUse">
<stop stop-color="#5042AF"/>
<stop offset="1" stop-color="#6742D1"/>
</linearGradient>
<linearGradient id="paint7_linear_2_9" x1="0.56572" y1="6.74185" x2="5.42974" y2="-13.831" gradientUnits="userSpaceOnUse">
<stop stop-color="#5042AF"/>
<stop offset="1" stop-color="#6742D1"/>
</linearGradient>
<linearGradient id="paint8_linear_2_9" x1="0.56572" y1="6.74185" x2="5.42974" y2="-13.831" gradientUnits="userSpaceOnUse">
<stop stop-color="#5042AF"/>
<stop offset="1" stop-color="#6742D1"/>
</linearGradient>
</defs>
</svg>
