<svg width="67" height="67" viewBox="0 0 67 67" fill="none" xmlns="http://www.w3.org/2000/svg">
<circle cx="33.2518" cy="33.2518" r="33.2518" fill="url(#paint0_linear_1_55)"/>
<path d="M34.3282 33.5768C39.4354 33.5768 43.5897 28.1565 43.5897 23.0496C43.5897 17.943 39.4356 13.7874 34.3282 13.7874C29.2209 13.7874 25.066 17.943 25.066 23.0496C25.0669 28.1559 29.2211 33.5768 34.3282 33.5768Z" fill="#F6F6F6"/>
<path d="M41.281 33.6714C39.4844 35.0401 37.2433 35.8545 34.8157 35.8545H33.8405C31.4123 35.8545 29.1707 35.0398 27.3746 33.6714C21.509 34.6196 17.0299 39.704 17.0299 45.8366C17.0299 49.2057 24.7744 51.9379 34.3281 51.9379C43.8818 51.9379 51.6264 49.2057 51.6264 45.8366C51.6264 39.7037 47.1466 34.6191 41.2809 33.6714H41.281Z" fill="#F6F6F6"/>
<defs>
<linearGradient id="paint0_linear_1_55" x1="0" y1="66.5036" x2="66.5036" y2="0" gradientUnits="userSpaceOnUse">
<stop stop-color="#564AA4"/>
<stop offset="1" stop-color="#5257CF"/>
</linearGradient>
</defs>
</svg>
