<svg width="67" height="67" viewBox="0 0 67 67" fill="none" xmlns="http://www.w3.org/2000/svg">
<circle cx="33.2518" cy="33.2518" r="33.2518" fill="url(#paint0_linear_1_42)"/>
<path d="M25.8735 45.3313L22.5848 48.6193C21.4835 49.7206 19.7284 49.7515 18.6647 48.6878L17.8089 47.832C16.7457 46.7685 16.7769 45.0134 17.8782 43.9121L21.1662 40.6235L25.8735 45.3313ZM46.2921 35.5325C42.881 38.9435 37.7625 39.6036 33.6892 37.5164L27.6018 43.6032L22.8946 38.896L28.9819 32.8086C26.895 28.7346 27.5548 23.6165 30.9659 20.2057C35.198 15.9733 42.0599 15.9733 46.2925 20.2057C50.5249 24.4375 50.5249 31.2998 46.2922 35.5323L46.2921 35.5325ZM43.368 23.1287C40.7506 20.5112 36.5063 20.5112 33.8885 23.129C31.2711 25.7464 31.2711 29.9907 33.8885 32.6085C36.5065 35.2265 40.7508 35.2265 43.368 32.6088C45.9858 29.9907 45.9858 25.7468 43.3677 23.1285L43.368 23.1287Z" fill="#F6F6F6"/>
<defs>
<linearGradient id="paint0_linear_1_42" x1="0" y1="66.5036" x2="66.5036" y2="0" gradientUnits="userSpaceOnUse">
<stop stop-color="#EA7543"/>
<stop offset="1" stop-color="#FFA362"/>
</linearGradient>
</defs>
</svg>
