<svg width="67" height="67" viewBox="0 0 67 67" fill="none" xmlns="http://www.w3.org/2000/svg">
<circle cx="33.2518" cy="33.2518" r="33.2518" fill="url(#paint0_linear_1_25)"/>
<path d="M40.2716 13.4296H26.2316C24.6522 13.4308 23.1378 14.0489 22.0211 15.1483C20.9045 16.2477 20.2766 17.7386 20.2753 19.2937V48.021C20.2765 49.5761 20.9044 51.067 22.0211 52.1664C23.1378 53.2658 24.6521 53.8839 26.2316 53.8851H40.2716C41.8511 53.8839 43.3655 53.2658 44.4822 52.1664C45.5988 51.067 46.2267 49.5761 46.228 48.021V19.2937C46.2267 17.7386 45.5989 16.2477 44.4822 15.1483C43.3655 14.049 41.8512 13.4308 40.2716 13.4296ZM37.3606 48.988H29.1422C28.5448 48.988 28.0609 48.5113 28.0609 47.9234C28.0609 47.3352 28.5448 46.8588 29.1422 46.8588H37.3606C37.958 46.8588 38.442 47.3352 38.442 47.9234C38.442 48.5113 37.958 48.988 37.3606 48.988Z" fill="#F6F6F6"/>
<path d="M28.9755 37.1152L32.1991 26.7952H33.6137L33.3354 28.8476L30.0539 39.3415H28.674L28.9755 37.1152ZM26.8072 26.7952L29.5553 37.2311L29.7524 39.3415H28.303L24.662 26.7952H26.8072ZM36.6981 37.15L39.3187 26.7952H41.4522L37.8113 39.3415H36.3734L36.6981 37.15ZM33.9268 26.7952L37.0808 36.9413L37.4402 39.3415H36.072L32.6977 28.8244L32.4194 26.7952H33.9268Z" fill="url(#paint1_linear_1_25)"/>
<defs>
<linearGradient id="paint0_linear_1_25" x1="0" y1="66.5036" x2="66.5036" y2="0" gradientUnits="userSpaceOnUse">
<stop stop-color="#EA719F"/>
<stop offset="1" stop-color="#D187A3"/>
</linearGradient>
<linearGradient id="paint1_linear_1_25" x1="24.0919" y1="45.3415" x2="49.5648" y2="28.9661" gradientUnits="userSpaceOnUse">
<stop stop-color="#EA719F"/>
<stop offset="1" stop-color="#D187A3"/>
</linearGradient>
</defs>
</svg>
